<svg class="yyxy" viewBox="0 0 1200 1200" xmlns="http://www.w3.org/2000/svg">
  <g class="yyxy__skeleton" fill="none" stroke="#211F20" stroke-linecap="round">
    <g class="yyxy_branches" stroke-width="4">
      <path class="yyxy__branch yyxy__branch--ne" d="M875 176l163-93" />
      <path class="yyxy__branch yyxy__branch--s" d="M597 627v186" />
      <path class="yyxy__branch yyxy__branch--nw" d="M323 176L160 83" />
    </g>

    <g class="yyxy__bonds" stroke-width="3">
      <path class="yyxy__bond yyxy__bond--n" d="M760 208l-163-93-163 93" />
      <path class="yyxy__bond yyxy__bond--se" d="M815 294v186l-163 95" />
      <path class="yyxy__bond yyxy__bond--sw" d="M380 294v186l163 95" />
    </g>
  </g>

  <g class="yyxy__text" fill="#211F20">
    <path class="yyxy__y yyxy__y--ne" d="M789.85 276.89c6.5 0 8.71-4.79 10.43-7.98 2.2-4.05 6.99-15.45 13-29.07 8.46-19.26 16.56-37.9 19.26-41.22a5.5 5.5 0 014.3-2.2h1.95c.62 0 .62-.37.62-1.1v-2.34c0-.49 0-.98-.74-.98-1.35 0-4.17.37-7.48.37-5.89 0-8.46-.37-10.06-.37-.61 0-.74.37-.74.98v2.45c0 .62.13.99.86.99h1.97c1.84 0 2.82 1.6 2.08 4.66-.73 3.06-11.4 28.46-12.63 30.42h-.5c-1.34-2.7-9.68-29.69-10.05-32.39-.25-1.84.24-2.7 1.6-2.7h2.32c.62 0 .74-.36.74-.98v-2.57c0-.5-.12-.86-1.1-.86-1.35 0-5.16.37-11.41.37-7.24 0-10.18-.37-11.29-.37-.86 0-.98.37-.98.86v2.45c0 .74.12 1.1.98 1.1h3.2c3.18 0 4.28 2.1 5.76 5.16.98 2.57 13.98 40.85 14.6 43.91-1.72 4.79-7.98 18.77-9.82 20.98-.74.73-1.72.86-2.58.73-1.1-.24-3.3-1.34-5.64-1.34-2.94 0-5.64 2.2-5.64 4.78 0 3.68 2.33 6.26 7 6.26z" />
    <path class="yyxy__y yyxy__y--s" d="M576.85 920.89c6.5 0 8.71-4.79 10.43-7.98 2.2-4.05 6.99-15.45 13-29.07 8.46-19.26 16.56-37.9 19.26-41.22a5.5 5.5 0 014.3-2.2h1.95c.62 0 .62-.37.62-1.1v-2.34c0-.49 0-.98-.74-.98-1.35 0-4.17.37-7.48.37-5.89 0-8.46-.37-10.06-.37-.61 0-.74.37-.74.98v2.45c0 .62.13.99.86.99h1.97c1.84 0 2.82 1.6 2.08 4.66-.73 3.06-11.4 28.46-12.63 30.42h-.5c-1.34-2.7-9.68-29.69-10.05-32.39-.25-1.84.24-2.7 1.6-2.7h2.32c.62 0 .74-.36.74-.98v-2.57c0-.5-.12-.86-1.1-.86-1.35 0-5.16.37-11.41.37-7.24 0-10.18-.37-11.29-.37-.86 0-.98.37-.98.86v2.45c0 .74.12 1.1.98 1.1h3.2c3.18 0 4.28 2.1 5.76 5.16.98 2.57 13.98 40.85 14.6 43.91-1.72 4.79-7.98 18.77-9.82 20.98-.74.73-1.72.86-2.58.73-1.1-.24-3.3-1.34-5.64-1.34-2.94 0-5.64 2.2-5.64 4.78 0 3.68 2.33 6.26 7 6.26z" />
    <path class="yyxy__y yyxy__y--nw" d="M360.85 276.89c6.5 0 8.71-4.79 10.43-7.98 2.2-4.05 6.99-15.45 13-29.07 8.46-19.26 16.56-37.9 19.26-41.22a5.5 5.5 0 014.3-2.2h1.95c.62 0 .62-.37.62-1.1v-2.34c0-.49 0-.98-.74-.98-1.35 0-4.17.37-7.48.37-5.89 0-8.46-.37-10.06-.37-.61 0-.74.37-.74.98v2.45c0 .62.13.99.86.99h1.97c1.84 0 2.82 1.6 2.08 4.66-.73 3.06-11.4 28.46-12.63 30.42h-.5c-1.34-2.7-9.68-29.69-10.05-32.39-.25-1.84.24-2.7 1.6-2.7h2.32c.62 0 .74-.36.74-.98v-2.57c0-.5-.12-.86-1.1-.86-1.35 0-5.16.37-11.41.37-7.24 0-10.18-.37-11.29-.37-.86 0-.98.37-.98.86v2.45c0 .74.12 1.1.98 1.1h3.2c3.18 0 4.28 2.1 5.76 5.16.98 2.57 13.98 40.85 14.6 43.91-1.72 4.79-7.98 18.77-9.82 20.98-.74.73-1.72.86-2.58.73-1.1-.24-3.3-1.34-5.64-1.34-2.94 0-5.64 2.2-5.64 4.78 0 3.68 2.33 6.26 7 6.26z" />
    <path class="yyxy__x" d="M589.98 602.45c0-.49-.13-.98-.62-.98h-2.57c-1.48 0-1.97-1.35-1.35-2.7.86-1.96 8.95-12.88 10.67-15.33l8.83 14.1c1.35 2.1.61 3.93-.73 3.93h-1.84c-.86 0-.99.37-.99 1.23v2.08c0 .62.13 1.1.99 1.1 1.34 0 5.02-.36 12.02-.36 6 0 8.34.37 9.44.37.74 0 .86-.5.86-.98v-2.46c0-.73-.12-.98-.61-.98h-1.97c-2.2 0-3.92-.86-5.4-2.57-5.39-6.5-10.3-13.99-15.2-21.23 2.57-3.18 13-16.06 15.08-17.78 1.23-.98 2.46-1.47 4.79-1.47h1.96c.86 0 .98-.25.98-.99v-2.2c0-.74-.12-1.23-1.1-1.23-.86 0-2.09.37-7 .37-6.99 0-9.07-.37-10.54-.37-.5 0-.62.25-.62.98v2.58c0 .49.13.86.74.86h1.47c2.09 0 2.46 2.45 1.35 3.92l-9.32 12.27-7.6-12.02c-1.48-2.21-1.48-4.17.48-4.17h1.1c.5 0 .74-.25.74-.99v-2.33c0-.73-.12-1.1-.73-1.1-1.1 0-5.64.37-11.41.37-5.77 0-9.08-.37-10.06-.37-.86 0-.98.25-.98 1.1v2.46c0 .37.12.86.86.86h3.43c1.72 0 3.44.49 4.42 1.71 2.82 3.07 9.81 13 14.47 20.24-2.08 2.33-13.49 17.54-15.82 19.63-.98.98-2.33 1.47-5.03 1.47h-3.19c-.86 0-.98.5-.98 1.1v2.21c0 .62.12 1.1 1.1 1.1 1.23 0 3.32-.36 9.45-.36 5.27 0 8.46.37 9.57.37.73 0 .86-.5.86-.98z" />
    <path class="yyxy__title" d="M81.66 1082.32v-7.8l-25.34-15.25v-.57l25.34-14.68v-7.57L46 1057.43v3.67z" />
    <path class="yyxy__title" d="M100.82 1118.1c6.08 0 8.14-4.48 9.75-7.46 2.06-3.78 6.54-14.45 12.15-27.18 7.92-18 15.48-35.43 18-38.52a5.14 5.14 0 014.02-2.07h1.83c.58 0 .58-.34.58-1.03v-2.18c0-.46 0-.92-.69-.92-1.26 0-3.9.35-7 .35-5.5 0-7.9-.35-9.4-.35-.57 0-.69.35-.69.92v2.3c0 .57.12.91.8.91h1.84c1.72 0 2.64 1.5 1.95 4.36-.69 2.87-10.66 26.6-11.81 28.44h-.46c-1.26-2.53-9.06-27.75-9.4-30.28-.23-1.72.23-2.52 1.49-2.52h2.18c.57 0 .69-.34.69-.92v-2.4c0-.46-.12-.8-1.04-.8-1.26 0-4.81.34-10.66.34-6.76 0-9.52-.35-10.55-.35-.8 0-.92.35-.92.8v2.3c0 .69.12 1.03.92 1.03h2.98c2.98 0 4.02 1.95 5.4 4.82.9 2.4 13.06 38.18 13.64 41.05-1.6 4.47-7.46 17.54-9.18 19.6-.68.7-1.6.81-2.4.7-1.04-.23-3.1-1.27-5.28-1.27-2.75 0-5.27 2.07-5.27 4.48 0 3.44 2.18 5.84 6.53 5.84z" />
    <path class="yyxy__title" d="M171.47 1088.28c14.1 0 25.34-12.73 25.34-25.23 0-7.45-2.64-13.41-7.8-18.69-3.44-3.44-9.74-6.65-16.05-6.65-3.78 0-9.4.92-15.37 5.5-6.76 5.28-9.86 12.62-9.86 18.47 0 8.14 1.03 12.38 6.31 18.69 4.82 5.73 11.92 7.91 17.43 7.91zm1.37-3.44c-5.38 0-8.71-2.18-11.35-5.96-3.67-5.28-4.35-9.63-4.35-16.06 0-8.71 1.6-13.41 6.07-18 2.75-2.98 5.74-3.67 8.83-3.67 5.85 0 15.14 8.03 15.14 20.76 0 12.27-5.62 22.93-14.34 22.93z" />
    <path class="yyxy__title" d="M249.34 1055.14c0-11.24.57-14.22.69-15.25.11-.57-.35-1.15-1.03-1.15-.35 0-.8.12-1.38.12-.57.11-1.15.23-1.95.23h-10.66c-1.15 0-1.38.11-1.38 1.03v1.95c0 .57.57.8 2.52.8 2.87.23 4.7.8 4.93 4.02v27.29c0 1.03-.68 2.52-1.14 3.1-2.18 2.74-6.77 5.73-9.86 5.73-3.1 0-6.31-.23-9.18-4.36-3.67-5.28-2.52-12.62-2.52-17.2v-8.14c0-6.77.34-12.16.46-13.19.11-.8-.46-1.38-1.26-1.38-.35 0-.8.12-1.26.12-.46.11-.92.23-1.61.23h-10.2c-1.04 0-1.27.23-1.27.92v2.06c0 .57.58.69 2.53.8 2.63.35 4.24 1.15 4.35 4.36v13.3c0 12.61-.23 16.4 4.48 22.48 3.78 4.93 7.56 5.27 10.77 5.27 5.74 0 12.39-3.55 15.6-8.03h.23l.92 6.65c.11 1.15.57 1.38 1.03 1.38.91 0 1.6-.23 2.3-.46l12.03-4.01c.46-.12.69-.35.57-1.03l-.34-1.5c-.11-.45-.46-.68-1.38-.45-1.37.34-3.1.34-3.78.34-1.38 0-2.64-.46-2.98-4.01-.23-2.41-.23-8.03-.23-13.53z" />
    <path class="yyxy__title" d="M279.62 1061.1c0-5.27.12-10.77.35-16.05h14.79c.69 0 .92-.34 1.03-.92l1.15-4.01c.23-.46-.12-1.03-.8-1.03H280.2l.57-11.35c0-.92-.23-1.72-1.15-1.72-.68 0-1.26.23-1.6 1.14-1.5 3.9-10.32 12.85-13.07 14.45-1.38.8-2.07 1.15-2.07 2.06 0 .92.69 1.38 1.72 1.38h7c-.12 4.82-.23 12.5-.23 14.56v2.53c0 1.6-.35 11.7-.35 16.4 0 4.35 5.5 9.74 11.13 9.74 6.88 0 11.58-3.44 12.72-4.59.35-.34.58-.8.23-1.26l-.57-1.03c-.34-.46-.8-.57-1.38-.23-1.6 1.03-4.93 1.5-7.56 1.5-2.07 0-5.97-1.5-5.97-10.1z" />
    <path class="yyxy__title" d="M308.76 1059.04c0 7.45 0 20.07-.34 22.25-.23 1.37-1.95 1.83-3.79 1.83h-2.4c-1.27 0-1.73.11-1.73.92v2.06c0 .8.35 1.15.8 1.15 1.04 0 5.4-.35 11.13-.35 5.27 0 9.98.35 10.9.35.68 0 .91-.46.91-1.26v-1.95c0-.69-.46-.92-1.26-.92h-3.44c-2.18 0-2.52-1.03-2.52-4.7v-25c0-2.06 1.26-4.36 2.29-5.62a14 14 0 0110.66-4.81c2.87 0 5.28 1.03 7.57 3.2 3.33 3.1 3.79 7.69 3.79 14.11v9.29c0 3.67.11 9.75 0 11.35-.12 1.95-2.41 2.18-4.36 2.18h-2.64c-.69 0-.8.34-.8.92v1.95c0 .91.23 1.26 1.03 1.26 1.03 0 5.16-.35 10.78-.35 6.54 0 10.2.35 11 .35.7 0 .92-.46.92-1.38v-1.72c0-.8-.34-1.03-1.26-1.03h-1.95c-2.4 0-4.24-.34-4.24-1.72 0-2.18-.23-9.29-.23-15.7v-6.55c0-6.19.23-12.04-4.93-16.85a15.04 15.04 0 00-11.35-4.59c-5.05 0-11.7 2.64-15.71 7.46h-.57v-7.34c0-5.74.11-29.01.34-30.96.23-1.95-.23-2.87-.92-2.87-.91 0-1.72.46-2.63.92l-11.93 6.3c-1.03.58-1.38.7-1.38 1.15v1.03c0 .35.12.46.8.7l1.96.68c4.12 1.37 5.5 2.64 5.5 9.63z" />
    <path class="yyxy__title" d="M396.28 1118.1c6.07 0 8.14-4.48 9.74-7.46 2.07-3.78 6.54-14.45 12.16-27.18 7.9-18 15.48-35.43 18-38.52a5.14 5.14 0 014.01-2.07h1.84c.57 0 .57-.34.57-1.03v-2.18c0-.46 0-.92-.69-.92-1.26 0-3.9.35-7 .35-5.5 0-7.9-.35-9.4-.35-.57 0-.68.35-.68.92v2.3c0 .57.11.91.8.91h1.83c1.72 0 2.64 1.5 1.95 4.36-.68 2.87-10.66 26.6-11.8 28.44h-.47c-1.26-2.53-9.05-27.75-9.4-30.28-.23-1.72.23-2.52 1.5-2.52h2.17c.57 0 .69-.34.69-.92v-2.4c0-.46-.12-.8-1.03-.8-1.26 0-4.82.34-10.67.34-6.76 0-9.51-.35-10.55-.35-.8 0-.91.35-.91.8v2.3c0 .69.11 1.03.91 1.03h2.99c2.98 0 4 1.95 5.38 4.82.92 2.4 13.08 38.18 13.65 41.05-1.6 4.47-7.45 17.54-9.17 19.6-.7.7-1.6.81-2.41.7-1.03-.23-3.1-1.27-5.28-1.27-2.75 0-5.27 2.07-5.27 4.48 0 3.44 2.18 5.84 6.54 5.84z" />
    <path class="yyxy__title" d="M466.92 1088.28c14.1 0 25.34-12.73 25.34-25.23 0-7.45-2.63-13.41-7.8-18.69-3.43-3.44-9.74-6.65-16.05-6.65-3.78 0-9.4.92-15.36 5.5-6.77 5.28-9.86 12.62-9.86 18.47 0 8.14 1.03 12.38 6.3 18.69 4.82 5.73 11.93 7.91 17.43 7.91zm1.38-3.44c-5.4 0-8.72-2.18-11.35-5.96-3.67-5.28-4.36-9.63-4.36-16.06 0-8.71 1.6-13.41 6.08-18 2.75-2.98 5.73-3.67 8.82-3.67 5.85 0 15.14 8.03 15.14 20.76 0 12.27-5.62 22.93-14.33 22.93z" />
    <path class="yyxy__title" d="M544.8 1055.14c0-11.24.57-14.22.68-15.25.11-.57-.34-1.15-1.03-1.15-.35 0-.8.12-1.38.12-.57.11-1.14.23-1.95.23h-10.66c-1.15 0-1.38.11-1.38 1.03v1.95c0 .57.58.8 2.53.8 2.86.23 4.7.8 4.93 4.02v27.29c0 1.03-.7 2.52-1.15 3.1-2.18 2.74-6.77 5.73-9.86 5.73-3.1 0-6.3-.23-9.18-4.36-3.66-5.28-2.52-12.62-2.52-17.2v-8.14c0-6.77.35-12.16.46-13.19.12-.8-.46-1.38-1.26-1.38-.34 0-.8.12-1.26.12-.46.11-.92.23-1.6.23h-10.21c-1.03 0-1.26.23-1.26.92v2.06c0 .57.57.69 2.52.8 2.64.35 4.24 1.15 4.36 4.36v13.3c0 12.61-.23 16.4 4.47 22.48 3.78 4.93 7.57 5.27 10.78 5.27 5.73 0 12.38-3.55 15.6-8.03h.22l.92 6.65c.11 1.15.57 1.38 1.03 1.38.92 0 1.6-.23 2.3-.46l12.03-4.01c.46-.12.7-.35.58-1.03l-.35-1.5c-.11-.45-.46-.68-1.37-.45-1.38.34-3.1.34-3.79.34-1.37 0-2.63-.46-2.98-4.01-.23-2.41-.23-8.03-.23-13.53z" />
    <path class="yyxy__title" d="M575.08 1061.1c0-5.27.11-10.77.34-16.05h14.8c.68 0 .9-.34 1.02-.92l1.15-4.01c.23-.46-.11-1.03-.8-1.03h-15.94l.57-11.35c0-.92-.23-1.72-1.14-1.72-.7 0-1.27.23-1.6 1.14-1.5 3.9-10.33 12.85-13.08 14.45-1.38.8-2.07 1.15-2.07 2.06 0 .92.7 1.38 1.72 1.38h7a971.6 971.6 0 00-.23 14.56v2.53c0 1.6-.34 11.7-.34 16.4 0 4.35 5.5 9.74 11.12 9.74 6.88 0 11.58-3.44 12.73-4.59.34-.34.57-.8.23-1.26l-.58-1.03c-.34-.46-.8-.57-1.37-.23-1.6 1.03-4.93 1.5-7.57 1.5-2.07 0-5.96-1.5-5.96-10.1z" />
    <path class="yyxy__title" d="M604.21 1059.04c0 7.45 0 20.07-.34 22.25-.23 1.37-1.95 1.83-3.78 1.83h-2.41c-1.26 0-1.72.11-1.72.92v2.06c0 .8.34 1.15.8 1.15 1.03 0 5.39-.35 11.12-.35 5.28 0 9.98.35 10.9.35.68 0 .91-.46.91-1.26v-1.95c0-.69-.46-.92-1.26-.92H615c-2.18 0-2.52-1.03-2.52-4.7v-25c0-2.06 1.26-4.36 2.3-5.62a14 14 0 0110.66-4.81c2.86 0 5.27 1.03 7.56 3.2 3.33 3.1 3.79 7.69 3.79 14.11v9.29c0 3.67.11 9.75 0 11.35-.12 1.95-2.41 2.18-4.36 2.18h-2.64c-.68 0-.8.34-.8.92v1.95c0 .91.23 1.26 1.03 1.26 1.04 0 5.16-.35 10.78-.35 6.54 0 10.2.35 11.01.35.69 0 .92-.46.92-1.38v-1.72c0-.8-.35-1.03-1.26-1.03h-1.95c-2.41 0-4.25-.34-4.25-1.72 0-2.18-.23-9.29-.23-15.7v-6.55c0-6.19.23-12.04-4.93-16.85a15.04 15.04 0 00-11.35-4.59c-5.04 0-11.7 2.64-15.7 7.46h-.58v-7.34c0-5.74.11-29.01.34-30.96.23-1.95-.23-2.87-.91-2.87-.92 0-1.72.46-2.64.92l-11.93 6.3c-1.03.58-1.37.7-1.37 1.15v1.03c0 .35.11.46.8.7l1.95.68c4.13 1.37 5.5 2.64 5.5 9.63z" />
    <path class="yyxy__title" d="M693.56 1067.41c0 8.37 0 17.89-.23 19.5-.11.57 0 .8.46.91l1.38.35c.69.11 1.03 0 1.49-.35l4.59-2.52c2.63 1.6 7.1 2.98 13.53 2.98 13.07 0 23.85-12.61 23.85-26.03 0-16.4-10.9-24.54-20.99-24.54-5.62 0-12.15 2.18-15.82 5.74v-13.3c0-10.21 0-23.28.11-24.2.12-1.38-.11-1.95-.91-1.95-.7 0-1.61.46-2.41 1.03a121.07 121.07 0 01-12.16 6.3c-.68.35-.91.58-.91.93v.91c0 .35.23.58 1.49.92l1.14.34c4.13 1.38 5.4 2.99 5.4 10.67zm8.26-20.07c2.52-2.63 6.65-4.12 10.9-4.12 11.23 0 17.08 10.55 17.08 21.67 0 15.02-8.49 19.72-15.37 19.72-4.93 0-9.74-2.98-10.9-5.73-1.37-3.67-1.71-7.11-1.71-16.63z" />
    <path class="yyxy__title" d="M748.84 1118.1c6.08 0 8.14-4.48 9.75-7.46 2.06-3.78 6.54-14.45 12.15-27.18 7.92-18 15.48-35.43 18-38.52a5.14 5.14 0 014.02-2.07h1.84c.57 0 .57-.34.57-1.03v-2.18c0-.46 0-.92-.69-.92-1.26 0-3.9.35-7 .35-5.5 0-7.9-.35-9.4-.35-.57 0-.68.35-.68.92v2.3c0 .57.11.91.8.91h1.83c1.72 0 2.64 1.5 1.95 4.36-.69 2.87-10.66 26.6-11.8 28.44h-.47c-1.26-2.53-9.06-27.75-9.4-30.28-.23-1.72.23-2.52 1.5-2.52h2.17c.57 0 .69-.34.69-.92v-2.4c0-.46-.12-.8-1.03-.8-1.27 0-4.82.34-10.67.34-6.76 0-9.52-.35-10.55-.35-.8 0-.92.35-.92.8v2.3c0 .69.12 1.03.92 1.03h2.98c2.98 0 4.02 1.95 5.4 4.82.91 2.4 13.06 38.18 13.64 41.05-1.6 4.47-7.46 17.54-9.18 19.6-.68.7-1.6.81-2.4.7-1.04-.23-3.1-1.27-5.28-1.27-2.75 0-5.27 2.07-5.27 4.48 0 3.44 2.18 5.84 6.53 5.84z" />
    <path class="yyxy__title" d="M829.36 1118.1c6.08 0 8.14-4.48 9.75-7.46 2.06-3.78 6.54-14.45 12.15-27.18 7.92-18 15.48-35.43 18-38.52a5.14 5.14 0 014.02-2.07h1.84c.57 0 .57-.34.57-1.03v-2.18c0-.46 0-.92-.69-.92-1.26 0-3.9.35-7 .35-5.5 0-7.9-.35-9.4-.35-.57 0-.68.35-.68.92v2.3c0 .57.11.91.8.91h1.83c1.72 0 2.64 1.5 1.95 4.36-.69 2.87-10.66 26.6-11.8 28.44h-.47c-1.26-2.53-9.06-27.75-9.4-30.28-.23-1.72.23-2.52 1.5-2.52h2.17c.57 0 .69-.34.69-.92v-2.4c0-.46-.12-.8-1.03-.8-1.27 0-4.82.34-10.67.34-6.76 0-9.52-.35-10.55-.35-.8 0-.92.35-.92.8v2.3c0 .69.12 1.03.92 1.03h2.98c2.98 0 4.02 1.95 5.4 4.82.91 2.4 13.06 38.18 13.64 41.05-1.6 4.47-7.46 17.54-9.18 19.6-.68.7-1.6.81-2.4.7-1.04-.23-3.1-1.27-5.28-1.27-2.75 0-5.27 2.07-5.27 4.48 0 3.44 2.18 5.84 6.53 5.84z" />
    <path class="yyxy__title" d="M900.01 1088.28c14.1 0 25.34-12.73 25.34-25.23 0-7.45-2.64-13.41-7.8-18.69-3.44-3.44-9.74-6.65-16.05-6.65-3.78 0-9.4.92-15.36 5.5-6.77 5.28-9.87 12.62-9.87 18.47 0 8.14 1.04 12.38 6.31 18.69 4.82 5.73 11.93 7.91 17.43 7.91zm1.38-3.44c-5.4 0-8.72-2.18-11.36-5.96-3.67-5.28-4.35-9.63-4.35-16.06 0-8.71 1.6-13.41 6.07-18 2.76-2.98 5.74-3.67 8.83-3.67 5.85 0 15.14 8.03 15.14 20.76 0 12.27-5.62 22.93-14.33 22.93z" />
    <path class="yyxy__title" d="M977.88 1055.14c0-11.24.57-14.22.69-15.25.11-.57-.35-1.15-1.03-1.15-.35 0-.8.12-1.38.12-.57.11-1.15.23-1.95.23h-10.66c-1.15 0-1.38.11-1.38 1.03v1.95c0 .57.57.8 2.52.8 2.87.23 4.7.8 4.93 4.02v27.29c0 1.03-.68 2.52-1.14 3.1-2.18 2.74-6.77 5.73-9.86 5.73-3.1 0-6.31-.23-9.18-4.36-3.67-5.28-2.52-12.62-2.52-17.2v-8.14c0-6.77.34-12.16.46-13.19.11-.8-.46-1.38-1.26-1.38-.35 0-.8.12-1.26.12-.46.11-.92.23-1.6.23h-10.21c-1.04 0-1.27.23-1.27.92v2.06c0 .57.58.69 2.53.8 2.63.35 4.24 1.15 4.35 4.36v13.3c0 12.61-.22 16.4 4.48 22.48 3.78 4.93 7.56 5.27 10.78 5.27 5.73 0 12.38-3.55 15.59-8.03h.23l.92 6.65c.11 1.15.57 1.38 1.03 1.38.92 0 1.6-.23 2.3-.46l12.03-4.01c.46-.12.69-.35.58-1.03l-.35-1.5c-.11-.45-.46-.68-1.37-.45-1.38.34-3.1.34-3.79.34-1.37 0-2.64-.46-2.98-4.01-.23-2.41-.23-8.03-.23-13.53z" />
    <path class="yyxy__title" d="M1040.16 1051.13c0-2.87-2.87-8.6-6.31-10.9-2.75-1.83-6.3-2.52-9.75-2.52-5.73 0-12.38 4.24-15.7 8.37h-.24l-.8-7c-.11-.9-.34-1.37-.92-1.37-.45 0-1.14.35-2.06.8l-9.86 5.5c-.57.24-1.03.58-1.03 1.16v.57c0 .34.11.69.91 1.03l.92.46c2.87 1.38 4.7 3.32 4.7 6.76v26.84c0 1.95-.8 2.29-2.29 2.29h-3.33c-.91 0-1.14.34-1.14 1.03v2.07c0 .68.23 1.03.8 1.03.69 0 4.36-.35 10.2-.35 6.08 0 9.18.35 9.98.35.57 0 .8-.35.8-1.03v-1.95c0-.8-.23-1.15-1.14-1.15h-2.87c-2.4 0-2.75-.69-2.75-3.78v-23.74c0-2.18.34-5.27 2.64-7.8 3.44-3.67 7.45-4.47 9.28-4.47 2.87 0 5.62 0 8.37 2.06 3.33 2.41 3.33 5.74 3.33 10.32v15.14c0 2.98-.11 6.65-.23 9.63-.11 2.07-1.03 2.64-2.3 2.64h-3.32c-1.14 0-1.49.23-1.49 1.03v1.84c0 .91.23 1.26.92 1.26.8 0 4.47-.35 10.32-.35 6.53 0 10.09.35 10.9.35.68 0 .91-.46.91-1.26v-1.84c0-.69-.23-1.03-1.26-1.03h-3.67c-1.5 0-2.52-.57-2.52-2.4z" />
    <path class="yyxy__title" d="M1075.49 1118.1c9.74 0 16.62-3.22 19.6-5.4 5.74-4.24 7.69-8.71 7.69-14.1-.12-2.75-.7-7.34-5.62-11-4.59-3.56-10.32-4.6-19.73-4.14-7.68.46-13.41.8-13.41-3.9 0-3.2 3.78-5.5 6.08-6.42 1.72.46 3.32.58 5.84.58 3.79 0 10.32-2.41 13.3-5.74 2.99-3.55 4.25-7.9 4.25-12.38 0-3.9-.8-6.42-1.72-8.71 1.49-.7 2.86-.7 3.67-.7.91 0 1.72.58 2.4 1.04a5.7 5.7 0 004.02 1.72 4.36 4.36 0 004.47-4.24c.23-2.3-1.6-4.82-5.39-4.82-3.78 0-7.68 2.3-10.78 4.47a18.4 18.4 0 00-14.45-6.65c-12.95 0-19.6 9.18-19.6 16.63 0 10.2 6.19 15.48 10.66 17.43v.23c-4.01 1.49-10.32 5.39-10.32 10.9 0 3.43 2.87 6.99 7.68 8.02v.46c-5.5 2.4-12.04 7.33-12.04 13.76 0 3.78 1.72 6.76 5.85 9.28 5.5 3.1 12.04 3.67 17.55 3.67zm-.7-47.6c-2.74 0-4.8-.91-6.87-2.86-2.41-2.52-3.67-6.08-3.67-9.98 0-4.35.46-9.63 4.13-13.53 2.75-2.75 5.5-3.2 8.14-3.2 1.72 0 4.01 1.02 5.5 2.52 2.07 2.29 3.1 5.27 3.1 10.32 0 7.22-2.53 16.74-10.32 16.74zm4.7 43.92c-8.13 0-12.26-.57-16.04-3.2-2.3-1.61-4.48-5.05-4.48-7.92 0-6.19 5.62-10.09 9.18-11l11-.8c11.47-.81 16.63 4.35 16.63 11.11.57 8.83-12.04 11.81-16.28 11.81z" />
    <path class="yyxy__title" d="M1118.84 1036.45v7.8l25.34 15.25v.57l-25.34 14.68v7.57l35.66-20.99v-3.67z" />
  </g>
</svg>
