<svg class="loona" xmlns="http://www.w3.org/2000/svg" viewBox="0 0 200 200">
  <defs>
    <mask id="crescent">
      <rect width="100%" height="100%" />
      <circle cx="100" cy="100" r="76" fill="#fff" />
      <circle class="loona__crescent" cx="100" cy="100" r="78" />
    </mask>
  </defs>

  <circle class="loona__circle" cx="100" cy="100" r="76" fill="none" mask="url(#crescent)" />

  <g class="loona__glyphs">
    <g fill="#221E1F">
      <path class="loona__l" d="M124.73 139.44h-18.1v-18.11a.31.31 0 00-.32-.33.31.31 0 00-.3.33v18.43a.31.31 0 00.3.31h18.44a.31.31 0 00.31-.31.32.32 0 00-.3-.32" />
      <path class="loona__o1" d="M85.53 61a9.53 9.53 0 109.53 9.52A9.54 9.54 0 0085.53 61m0 18.42a8.9 8.9 0 118.91-8.9 8.91 8.91 0 01-8.91 8.9" />
      <path class="loona__o2" d="M85.55 91a9.54 9.54 0 109.53 9.55A9.53 9.53 0 0085.55 91m0 18.44a8.91 8.91 0 118.9-8.91 8.92 8.92 0 01-8.9 8.91" />
      <path class="loona__n" d="M106 61.31v18.43a.31.31 0 00.32.31h18.44a.31.31 0 000-.62h-18.12v-17.8h18.12a.31.31 0 000-.63h-18.43a.31.31 0 00-.33.31" />
      <path class="loona__a" d="M95.04 139.6l-9.18-18.43a.32.32 0 00-.56 0l-9.26 18.43a.34.34 0 000 .3.33.33 0 00.27.16H94.8a.32.32 0 00.26-.15.34.34 0 000-.31m-18.21-.17l8.73-17.44 8.7 17.42z" />
    </g>

    <path class="loona__slash" fill="#D74497" d="M125 91.09a.31.31 0 00-.21-.09.29.29 0 00-.22.09l-18.47 18.46a.3.3 0 000 .44.29.29 0 00.22.1.32.32 0 00.22-.1L125 91.53a.31.31 0 000-.44" />
  </g>
</svg>
