<svg class="loona" xmlns="http://www.w3.org/2000/svg" viewBox="0 0 1900 1900">
  <defs>
    <mask id="crescent">
      <rect width="100%" height="100%" />
      <circle cx="950" cy="950" r="850" fill="#fff" />
      <circle class="loona__crescent" cx="950" cy="950" r="782" />
    </mask>
  </defs>

  <circle class="loona__circle" cx="950" cy="950" r="780" fill="none" mask="url(#crescent)" />

  <g class="loona__glyphs">
    <path class="loona__o1" d="M796.96 535c-55.15 0-99.96 44.81-99.96 99.96 0 55.15 44.81 99.96 99.96 99.96s99.96-44.81 99.96-99.96c0-55.15-44.81-99.96-99.96-99.96zm.25 6.48c51.48 0 93.48 42 93.48 93.48 0 51.74-42 93.73-93.48 93.73-51.74 0-93.73-41.99-93.73-93.73 0-51.49 41.99-93.48 93.73-93.48z" />
    <path class="loona__n" d="M1001 535a3 3 0 00-3 3v195a3 3 0 003 3h193a3 3 0 003-3 3 3 0 00-3-3h-190V541h190a3 3 0 003-3 3 3 0 00-3-3h-193z" />
    <path class="loona__o2" d="M796.96 822c-55.15 0-99.96 44.81-99.96 99.96 0 55.15 44.81 99.96 99.96 99.96s99.96-44.81 99.96-99.96c0-55.15-44.81-99.96-99.96-99.96zm.25 6.48c51.48 0 93.48 42 93.48 93.48 0 51.74-42 93.73-93.48 93.73-51.74 0-93.73-41.99-93.73-93.73 0-51.49 41.99-93.48 93.73-93.48z" />
    <path class="loona__slash" fill="#FF32B0" d="M1194 823.5a2.5 2.5 0 00-1.74.73l-194 193a2.5 2.5 0 000 3.53 2.5 2.5 0 003.53.01l194-193a2.5 2.5 0 000-3.53 2.5 2.5 0 00-1.79-.74z" />
    <path class="loona__a" d="M795 1113l-3 1-96 190c-1 2 0 5 3 5h192c3 0 4-3 3-5l-96-190-3-1zm0 9l92 181H703l92-181z" />
    <path class="loona__l" d="M1001 1111a3 3 0 00-3 3v193a3 3 0 003 3h193a3 3 0 003-3 3 3 0 00-3-3h-190v-190a3 3 0 00-3-3z" />
  </g>
</svg>
