<svg class="yyxy" xmlns="http://www.w3.org/2000/svg" viewBox="0 0 1800 1800">
  <g class="yyxy__skeleton" fill="none" stroke="#211F20" stroke-linecap="round">
    <g class="yyxy__branches" stroke-width="4">
      <path class="yyxy__branch yyxy__branch--s" d="M897.75 931.72v187" />
      <path class="yyxy__branch yyxy__branch--nw" d="M623.75 466.72l.25.28-162-93" />
      <path class="yyxy__branch yyxy__branch--ne" d="M1176 467l162-93" />
    </g>

    <g class="yyxy__bonds" stroke-width="3">
      <path class="yyxy__bond yyxy__bond--n yyxy__bond--start" d="M 1061,498 898,405" />
      <path class="yyxy__bond yyxy__bond--n yyxy__bond--end" d="M898 405l-163 93" />
      <path class="yyxy__bond yyxy__bond--sw yyxy__bond--start" d="M680 592v187" />
      <path class="yyxy__bond yyxy__bond--sw yyxy__bond--end" d="M680 779l164 94" />
      <path class="yyxy__bond yyxy__bond--se yyxy__bond--start" d="m 952,873 164,-94" />
      <path class="yyxy__bond yyxy__bond--se yyxy__bond--end" d="M 1116,779 V 592" />
    </g>

    <g class="yyxy__atoms" fill="#211F20" stroke="none">
      <path class="yyxy__atom yyxy__atom--y yyxy__atom--nw" d="M662.85 566.89c6.5 0 8.7-4.78 10.43-7.97 2.2-4.05 6.99-15.46 13-29.08 8.46-19.25 16.56-37.9 19.26-41.21a5.5 5.5 0 014.3-2.2h1.96c.6 0 .6-.38.6-1.11v-2.33c0-.5 0-.99-.73-.99-1.35 0-4.17.37-7.48.37-5.89 0-8.46-.37-10.06-.37-.61 0-.74.37-.74.99v2.45c0 .61.13.98.86.98h1.97c1.84 0 2.82 1.6 2.08 4.66-.73 3.07-11.4 28.46-12.63 30.42h-.5c-1.34-2.7-9.69-29.68-10.05-32.38-.25-1.84.24-2.7 1.6-2.7h2.32c.62 0 .74-.37.74-.98v-2.58c0-.49-.12-.86-1.1-.86-1.36 0-5.16.37-11.41.37-7.24 0-10.18-.37-11.29-.37-.86 0-.98.37-.98.86v2.46c0 .73.12 1.1.98 1.1h3.19c3.19 0 4.3 2.09 5.77 5.15.98 2.58 13.98 40.85 14.6 43.92-1.72 4.78-7.98 18.77-9.82 20.97-.74.74-1.72.86-2.58.74-1.1-.25-3.3-1.35-5.64-1.35-2.94 0-5.64 2.2-5.64 4.78 0 3.68 2.33 6.26 6.99 6.26z" />
      <path class="yyxy__atom yyxy__atom--y yyxy__atom--ne" d="M1089.9 566.89c6.5 0 8.7-4.78 10.43-7.97 2.2-4.05 6.99-15.46 13-29.08 8.46-19.25 16.56-37.9 19.26-41.21a5.5 5.5 0 014.3-2.2h1.95c.62 0 .62-.38.62-1.11v-2.33c0-.5 0-.99-.74-.99-1.35 0-4.17.37-7.48.37-5.89 0-8.46-.37-10.06-.37-.61 0-.74.37-.74.99v2.45c0 .61.13.98.86.98h1.97c1.84 0 2.82 1.6 2.08 4.66-.73 3.07-11.4 28.46-12.63 30.42h-.5c-1.34-2.7-9.69-29.68-10.05-32.38-.25-1.84.24-2.7 1.6-2.7h2.32c.62 0 .74-.37.74-.98v-2.58c0-.49-.12-.86-1.1-.86-1.36 0-5.16.37-11.41.37-7.24 0-10.19-.37-11.29-.37-.86 0-.98.37-.98.86v2.46c0 .73.12 1.1.98 1.1h3.19c3.19 0 4.3 2.09 5.77 5.15.98 2.58 13.98 40.85 14.6 43.92-1.72 4.78-7.98 18.77-9.82 20.97-.74.74-1.72.86-2.58.74-1.1-.25-3.3-1.35-5.64-1.35-2.94 0-5.64 2.2-5.64 4.78 0 3.68 2.33 6.26 6.99 6.26z" />
      <path class="yyxy__atom yyxy__atom--y yyxy__atom--s" d="M877.85 1225.9c6.5 0 8.7-4.78 10.43-7.97 2.2-4.05 6.99-15.46 13-29.08 8.46-19.25 16.56-37.9 19.26-41.21a5.5 5.5 0 014.3-2.2h1.96c.6 0 .6-.38.6-1.11V1142c0-.5 0-.99-.73-.99-1.35 0-4.17.37-7.48.37-5.89 0-8.46-.37-10.06-.37-.61 0-.74.37-.74.99v2.45c0 .61.13.98.86.98h1.97c1.84 0 2.82 1.6 2.08 4.66-.73 3.07-11.4 28.46-12.63 30.42h-.5c-1.34-2.7-9.69-29.68-10.05-32.38-.25-1.84.24-2.7 1.6-2.7h2.32c.62 0 .74-.37.74-.98v-2.58c0-.49-.12-.86-1.1-.86-1.36 0-5.16.37-11.41.37-7.24 0-10.18-.37-11.29-.37-.86 0-.98.37-.98.86v2.46c0 .73.12 1.1.98 1.1h3.19c3.19 0 4.3 2.09 5.77 5.15.98 2.58 13.98 40.85 14.6 43.92-1.72 4.78-7.98 18.77-9.82 20.97-.74.74-1.72.86-2.58.74-1.1-.25-3.3-1.35-5.64-1.35-2.94 0-5.64 2.2-5.64 4.78 0 3.68 2.33 6.26 6.99 6.26z" />
      <path class="yyxy__atom yyxy__atom--x" d="M890.98 901.45c0-.5-.12-.98-.61-.98h-2.58c-1.47 0-1.96-1.35-1.35-2.7.86-1.96 8.96-12.88 10.67-15.33l8.84 14.1c1.34 2.09.6 3.93-.74 3.93h-1.84c-.86 0-.98.37-.98 1.23v2.08c0 .61.12 1.1.98 1.1 1.35 0 5.03-.36 12.02-.36 6.01 0 8.34.37 9.45.37.73 0 .85-.5.85-.99v-2.45c0-.74-.12-.98-.6-.98h-1.97c-2.21 0-3.93-.86-5.4-2.58-5.4-6.5-10.3-13.98-15.21-21.22 2.58-3.19 13-16.07 15.09-17.78 1.22-.99 2.45-1.48 4.78-1.48h1.96c.86 0 .99-.24.99-.98v-2.2c0-.74-.13-1.23-1.1-1.23-.87 0-2.1.37-7 .37-7 0-9.08-.37-10.55-.37-.49 0-.61.24-.61.98v2.57c0 .5.12.86.73.86h1.48c2.08 0 2.45 2.46 1.35 3.93l-9.33 12.27-7.6-12.03c-1.47-2.2-1.47-4.17.49-4.17h1.1c.5 0 .74-.24.74-.98v-2.33c0-.73-.12-1.1-.74-1.1-1.1 0-5.64.37-11.4.37-5.77 0-9.08-.37-10.07-.37-.85 0-.98.24-.98 1.1v2.46c0 .36.13.85.86.85h3.44c1.71 0 3.43.5 4.41 1.72 2.82 3.07 9.82 13 14.48 20.24-2.09 2.33-13.5 17.54-15.83 19.63-.98.98-2.33 1.47-5.03 1.47H871c-.86 0-.99.5-.99 1.1v2.21c0 .62.13 1.1 1.1 1.1 1.23 0 3.32-.36 9.45-.36 5.28 0 8.47.37 9.57.37.74 0 .86-.5.86-.99z" />
    </g>
  </g>

  <g class="yyxy__name" fill="#211F20">
    <path class="yyxy__glyph yyxy__glyph--lt" d="M382.66 1447.3v-7.8l-25.34-15.25v-.57l25.34-14.68v-7.57L347 1422.42v3.67z" />
    <path class="yyxy__glyph" d="M401.82 1483.1c6.08 0 8.14-4.47 9.75-7.45 2.06-3.79 6.53-14.45 12.15-27.18 7.91-18 15.48-35.43 18-38.53a5.14 5.14 0 014.02-2.06h1.83c.58 0 .58-.35.58-1.03v-2.18c0-.46 0-.92-.7-.92-1.25 0-3.9.34-6.99.34-5.5 0-7.9-.34-9.4-.34-.57 0-.69.34-.69.92v2.3c0 .56.12.9.8.9h1.84c1.72 0 2.64 1.5 1.95 4.37s-10.66 26.6-11.81 28.43h-.46c-1.26-2.52-9.06-27.75-9.4-30.27-.23-1.72.23-2.52 1.49-2.52h2.18c.57 0 .68-.35.68-.92v-2.4c0-.47-.11-.81-1.03-.81-1.26 0-4.81.34-10.66.34-6.77 0-9.52-.34-10.55-.34-.8 0-.92.34-.92.8v2.3c0 .68.12 1.03.92 1.03h2.98c2.98 0 4.01 1.95 5.39 4.81.92 2.41 13.07 38.19 13.64 41.06-1.6 4.47-7.45 17.54-9.17 19.6-.69.7-1.6.8-2.4.7-1.04-.24-3.1-1.27-5.28-1.27-2.75 0-5.28 2.06-5.28 4.47 0 3.44 2.18 5.85 6.54 5.85z" />
    <path class="yyxy__glyph" d="M472.47 1453.3c14.1 0 25.34-12.73 25.34-25.23 0-7.45-2.64-13.41-7.8-18.69-3.44-3.44-9.74-6.65-16.05-6.65-3.78 0-9.4.92-15.36 5.5-6.77 5.28-9.87 12.62-9.87 18.47 0 8.14 1.04 12.38 6.31 18.69 4.82 5.73 11.93 7.9 17.43 7.9zm1.38-3.44c-5.4 0-8.72-2.18-11.36-5.96-3.67-5.28-4.35-9.63-4.35-16.06 0-8.71 1.6-13.41 6.07-18 2.76-2.98 5.74-3.67 8.83-3.67 5.85 0 15.14 8.03 15.14 20.76 0 12.27-5.62 22.93-14.33 22.93z" />
    <path class="yyxy__glyph" d="M550.34 1420.1c0-11.24.57-14.22.69-15.25.11-.57-.35-1.15-1.03-1.15-.35 0-.8.12-1.38.12a9.1 9.1 0 01-1.95.23h-10.66c-1.15 0-1.38.11-1.38 1.03v1.95c0 .57.57.8 2.52.8 2.87.23 4.7.8 4.93 4.01v27.3c0 1.03-.68 2.52-1.14 3.1-2.18 2.74-6.77 5.72-9.86 5.72-3.1 0-6.31-.23-9.18-4.35-3.67-5.28-2.52-12.62-2.52-17.2v-8.14c0-6.77.34-12.16.46-13.2.11-.8-.46-1.37-1.26-1.37-.35 0-.8.12-1.26.12-.46.11-.92.23-1.6.23H505.5c-1.04 0-1.27.23-1.27.91v2.07c0 .57.58.69 2.53.8 2.63.34 4.24 1.15 4.35 4.36v13.3c0 12.61-.22 16.4 4.48 22.47 3.78 4.93 7.56 5.28 10.78 5.28 5.73 0 12.38-3.56 15.6-8.03h.22l.92 6.65c.11 1.15.57 1.38 1.03 1.38.92 0 1.6-.23 2.3-.46l12.03-4.01c.46-.12.7-.35.58-1.04l-.35-1.49c-.11-.46-.46-.68-1.37-.46-1.38.35-3.1.35-3.79.35-1.37 0-2.64-.46-2.98-4.01-.23-2.41-.23-8.03-.23-13.54z" />
    <path class="yyxy__glyph" d="M580.62 1426.1c0-5.27.11-10.78.34-16.05h14.8c.68 0 .91-.35 1.03-.92l1.14-4.01c.23-.46-.11-1.04-.8-1.04H581.2l.58-11.35c0-.91-.23-1.72-1.15-1.72-.69 0-1.26.23-1.6 1.15-1.5 3.9-10.33 12.84-13.08 14.45-1.37.8-2.06 1.14-2.06 2.06 0 .92.69 1.38 1.72 1.38h7c-.12 4.81-.24 12.5-.24 14.56v2.52c0 1.6-.34 11.7-.34 16.4 0 4.36 5.5 9.75 11.12 9.75 6.88 0 11.58-3.44 12.73-4.59.34-.34.57-.8.23-1.26l-.57-1.03c-.35-.46-.8-.58-1.38-.23-1.6 1.03-4.93 1.49-7.57 1.49-2.06 0-5.96-1.5-5.96-10.1z" />
    <path class="yyxy__glyph" d="M609.76 1424c0 7.45 0 20.07-.34 22.25-.23 1.37-1.95 1.83-3.79 1.83h-2.4c-1.27 0-1.73.11-1.73.92v2.06c0 .8.35 1.15.8 1.15 1.04 0 5.4-.35 11.13-.35 5.27 0 9.98.35 10.9.35.68 0 .91-.46.91-1.26V1449c0-.7-.46-.92-1.26-.92h-3.44c-2.18 0-2.52-1.03-2.52-4.7v-25c0-2.06 1.26-4.36 2.29-5.62a14 14 0 0110.66-4.81c2.87 0 5.28 1.03 7.57 3.2 3.33 3.1 3.79 7.69 3.79 14.11v9.29c0 3.67.11 9.75 0 11.35-.12 1.95-2.41 2.18-4.36 2.18h-2.64c-.69 0-.8.34-.8.92v1.95c0 .91.23 1.26 1.03 1.26 1.03 0 5.16-.35 10.78-.35 6.54 0 10.2.35 11 .35.7 0 .92-.46.92-1.38v-1.72c0-.8-.34-1.03-1.26-1.03h-1.95c-2.4 0-4.24-.34-4.24-1.72 0-2.18-.23-9.29-.23-15.7v-6.54c0-6.2.23-12.04-4.93-16.86a15.04 15.04 0 00-11.35-4.59c-5.05 0-11.7 2.64-15.71 7.46h-.57v-7.34c0-5.74.11-29.01.34-30.96.23-1.95-.23-2.87-.92-2.87-.91 0-1.72.46-2.63.92l-11.93 6.3c-1.03.58-1.37.7-1.37 1.15v1.03c0 .35.11.46.8.7l1.95.68c4.13 1.38 5.5 2.64 5.5 9.63z" />
    <path class="yyxy__glyph" d="M697.28 1483.1c6.08 0 8.14-4.47 9.75-7.45 2.06-3.79 6.53-14.45 12.15-27.18 7.91-18 15.48-35.43 18-38.53a5.14 5.14 0 014.02-2.06h1.83c.58 0 .58-.35.58-1.03v-2.18c0-.46 0-.92-.7-.92-1.25 0-3.9.34-6.99.34-5.5 0-7.9-.34-9.4-.34-.57 0-.69.34-.69.92v2.3c0 .56.12.9.8.9h1.84c1.72 0 2.64 1.5 1.95 4.37-.69 2.86-10.66 26.6-11.81 28.43h-.46c-1.26-2.52-9.06-27.75-9.4-30.27-.23-1.72.23-2.52 1.49-2.52h2.18c.57 0 .68-.35.68-.92v-2.4c0-.47-.11-.81-1.03-.81-1.26 0-4.81.34-10.66.34-6.77 0-9.52-.34-10.55-.34-.8 0-.92.34-.92.8v2.3c0 .68.12 1.03.92 1.03h2.98c2.98 0 4.01 1.95 5.39 4.81.92 2.41 13.07 38.19 13.64 41.06-1.6 4.47-7.45 17.54-9.17 19.6-.69.7-1.6.8-2.4.7-1.04-.24-3.1-1.27-5.28-1.27-2.75 0-5.28 2.06-5.28 4.47 0 3.44 2.18 5.85 6.54 5.85z" />
    <path class="yyxy__glyph" d="M767.92 1453.3c14.1 0 25.34-12.73 25.34-25.23 0-7.45-2.64-13.41-7.8-18.69-3.44-3.44-9.74-6.65-16.05-6.65-3.78 0-9.4.92-15.36 5.5-6.77 5.28-9.87 12.62-9.87 18.47 0 8.14 1.04 12.38 6.31 18.69 4.82 5.73 11.93 7.9 17.43 7.9zm1.38-3.44c-5.4 0-8.72-2.18-11.36-5.96-3.67-5.28-4.35-9.63-4.35-16.06 0-8.71 1.6-13.41 6.07-18 2.76-2.98 5.74-3.67 8.83-3.67 5.85 0 15.14 8.03 15.14 20.76 0 12.27-5.62 22.93-14.33 22.93z" />
    <path class="yyxy__glyph" d="M845.79 1420.1c0-11.24.57-14.22.69-15.25.11-.57-.35-1.15-1.03-1.15-.35 0-.8.12-1.38.12a9.1 9.1 0 01-1.95.23h-10.66c-1.15 0-1.38.11-1.38 1.03v1.95c0 .57.57.8 2.52.8 2.87.23 4.7.8 4.93 4.01v27.3c0 1.03-.68 2.52-1.14 3.1-2.18 2.74-6.77 5.72-9.86 5.72-3.1 0-6.31-.23-9.18-4.35-3.67-5.28-2.52-12.62-2.52-17.2v-8.14c0-6.77.34-12.16.46-13.2.11-.8-.46-1.37-1.26-1.37-.35 0-.8.12-1.26.12-.46.11-.92.23-1.6.23h-10.21c-1.04 0-1.27.23-1.27.91v2.07c0 .57.58.69 2.53.8 2.63.34 4.24 1.15 4.35 4.36v13.3c0 12.61-.22 16.4 4.48 22.47 3.78 4.93 7.56 5.28 10.78 5.28 5.73 0 12.38-3.56 15.6-8.03h.22l.92 6.65c.11 1.15.57 1.38 1.03 1.38.92 0 1.6-.23 2.3-.46l12.03-4.01c.46-.12.7-.35.58-1.04l-.35-1.49c-.11-.46-.46-.68-1.37-.46-1.38.35-3.1.35-3.79.35-1.37 0-2.64-.46-2.98-4.01-.23-2.41-.23-8.03-.23-13.54z" />
    <path class="yyxy__glyph" d="M876.08 1426.1c0-5.27.11-10.78.34-16.05h14.8c.68 0 .91-.35 1.03-.92l1.14-4.01c.23-.46-.11-1.04-.8-1.04h-15.94l.58-11.35c0-.91-.23-1.72-1.15-1.72-.69 0-1.26.23-1.6 1.15-1.5 3.9-10.33 12.84-13.08 14.45-1.37.8-2.06 1.14-2.06 2.06 0 .92.69 1.38 1.72 1.38h7c-.12 4.81-.24 12.5-.24 14.56v2.52c0 1.6-.34 11.7-.34 16.4 0 4.36 5.5 9.75 11.12 9.75 6.88 0 11.58-3.44 12.73-4.59.34-.34.57-.8.23-1.26l-.57-1.03c-.35-.46-.8-.58-1.38-.23-1.6 1.03-4.93 1.49-7.57 1.49-2.06 0-5.96-1.5-5.96-10.1z" />
    <path class="yyxy__glyph" d="M905.21 1424c0 7.45 0 20.07-.34 22.25-.23 1.37-1.95 1.83-3.79 1.83h-2.4c-1.27 0-1.73.11-1.73.92v2.06c0 .8.35 1.15.8 1.15 1.04 0 5.4-.35 11.13-.35 5.27 0 9.98.35 10.9.35.68 0 .91-.46.91-1.26V1449c0-.7-.46-.92-1.26-.92h-3.44c-2.18 0-2.52-1.03-2.52-4.7v-25c0-2.06 1.26-4.36 2.29-5.62a14 14 0 0110.66-4.81c2.87 0 5.28 1.03 7.57 3.2 3.33 3.1 3.79 7.69 3.79 14.11v9.29c0 3.67.11 9.75 0 11.35-.12 1.95-2.41 2.18-4.36 2.18h-2.64c-.69 0-.8.34-.8.92v1.95c0 .91.23 1.26 1.03 1.26 1.03 0 5.16-.35 10.78-.35 6.54 0 10.2.35 11 .35.7 0 .92-.46.92-1.38v-1.72c0-.8-.34-1.03-1.26-1.03h-1.95c-2.4 0-4.24-.34-4.24-1.72 0-2.18-.23-9.29-.23-15.7v-6.54c0-6.2.23-12.04-4.93-16.86a15.04 15.04 0 00-11.35-4.59c-5.05 0-11.7 2.64-15.71 7.46h-.57v-7.34c0-5.74.11-29.01.34-30.96.23-1.95-.23-2.87-.92-2.87-.91 0-1.72.46-2.63.92l-11.93 6.3c-1.03.58-1.37.7-1.37 1.15v1.03c0 .35.11.46.8.7l1.95.68c4.13 1.38 5.5 2.64 5.5 9.63z" />
    <path class="yyxy__glyph" d="M994.56 1432.4c0 8.37 0 17.89-.23 19.5-.11.57 0 .8.46.91l1.38.34c.68.12 1.03 0 1.49-.34l4.58-2.52c2.64 1.6 7.11 2.98 13.53 2.98 13.08 0 23.85-12.61 23.85-26.03 0-16.4-10.89-24.54-20.98-24.54-5.62 0-12.15 2.18-15.82 5.73v-13.3c0-10.2 0-23.27.11-24.2.12-1.37-.11-1.94-.92-1.94-.68 0-1.6.46-2.4 1.03a121.04 121.04 0 01-12.16 6.3c-.69.35-.92.58-.92.93v.91c0 .35.23.58 1.5.92l1.14.34c4.13 1.38 5.39 2.99 5.39 10.67zm8.26-20.07c2.52-2.63 6.65-4.12 10.89-4.12 11.24 0 17.08 10.54 17.08 21.67 0 15.02-8.48 19.72-15.36 19.72-4.93 0-9.75-2.98-10.9-5.73-1.37-3.67-1.71-7.11-1.71-16.63z" />
    <path class="yyxy__glyph" d="M1049.8 1483.1c6.08 0 8.14-4.47 9.75-7.45 2.06-3.79 6.53-14.45 12.15-27.18 7.91-18 15.48-35.43 18-38.53a5.14 5.14 0 014.02-2.06h1.83c.58 0 .58-.35.58-1.03v-2.18c0-.46 0-.92-.7-.92-1.25 0-3.9.34-6.99.34-5.5 0-7.9-.34-9.4-.34-.57 0-.69.34-.69.92v2.3c0 .56.12.9.8.9h1.84c1.72 0 2.64 1.5 1.95 4.37s-10.66 26.6-11.81 28.43h-.46c-1.26-2.52-9.06-27.75-9.4-30.27-.23-1.72.23-2.52 1.49-2.52h2.18c.57 0 .68-.35.68-.92v-2.4c0-.47-.11-.81-1.03-.81-1.26 0-4.81.34-10.66.34-6.77 0-9.52-.34-10.55-.34-.8 0-.92.34-.92.8v2.3c0 .68.12 1.03.92 1.03h2.98c2.98 0 4.01 1.95 5.39 4.81.92 2.41 13.07 38.19 13.64 41.06-1.6 4.47-7.45 17.54-9.17 19.6-.69.7-1.6.8-2.4.7-1.04-.24-3.1-1.27-5.28-1.27-2.75 0-5.28 2.06-5.28 4.47 0 3.44 2.18 5.85 6.54 5.85z" />
    <path class="yyxy__glyph" d="M1130.4 1483.1c6.08 0 8.14-4.47 9.75-7.45 2.06-3.79 6.53-14.45 12.15-27.18 7.91-18 15.48-35.43 18-38.53a5.14 5.14 0 014.02-2.06h1.83c.58 0 .58-.35.58-1.03v-2.18c0-.46 0-.92-.7-.92-1.25 0-3.9.34-6.99.34-5.5 0-7.9-.34-9.4-.34-.57 0-.69.34-.69.92v2.3c0 .56.12.9.8.9h1.84c1.72 0 2.64 1.5 1.95 4.37s-10.66 26.6-11.81 28.43h-.46c-1.26-2.52-9.06-27.75-9.4-30.27-.23-1.72.23-2.52 1.49-2.52h2.18c.57 0 .68-.35.68-.92v-2.4c0-.47-.11-.81-1.03-.81-1.26 0-4.81.34-10.66.34-6.77 0-9.52-.34-10.55-.34-.8 0-.92.34-.92.8v2.3c0 .68.12 1.03.92 1.03h2.98c2.98 0 4.01 1.95 5.39 4.81.92 2.41 13.07 38.19 13.64 41.06-1.6 4.47-7.45 17.54-9.17 19.6-.69.7-1.6.8-2.4.7-1.04-.24-3.1-1.27-5.28-1.27-2.75 0-5.28 2.06-5.28 4.47 0 3.44 2.18 5.85 6.54 5.85z" />
    <path class="yyxy__glyph" d="M1201 1453.3c14.1 0 25.34-12.73 25.34-25.23 0-7.45-2.64-13.41-7.8-18.69-3.44-3.44-9.74-6.65-16.05-6.65-3.78 0-9.4.92-15.36 5.5-6.77 5.28-9.87 12.62-9.87 18.47 0 8.14 1.04 12.38 6.31 18.69 4.82 5.73 11.93 7.9 17.43 7.9zm1.38-3.44c-5.4 0-8.72-2.18-11.36-5.96-3.67-5.28-4.35-9.63-4.35-16.06 0-8.71 1.6-13.41 6.07-18 2.76-2.98 5.74-3.67 8.83-3.67 5.85 0 15.14 8.03 15.14 20.76 0 12.27-5.62 22.93-14.33 22.93z" />
    <path class="yyxy__glyph" d="M1278.9 1420.1c0-11.24.57-14.22.69-15.25.11-.57-.35-1.15-1.03-1.15-.35 0-.8.12-1.38.12a9.1 9.1 0 01-1.95.23h-10.66c-1.15 0-1.38.11-1.38 1.03v1.95c0 .57.57.8 2.52.8 2.87.23 4.7.8 4.93 4.01v27.3c0 1.03-.68 2.52-1.14 3.1-2.18 2.74-6.77 5.72-9.86 5.72-3.1 0-6.31-.23-9.18-4.35-3.67-5.28-2.52-12.62-2.52-17.2v-8.14c0-6.77.34-12.16.46-13.2.11-.8-.46-1.37-1.26-1.37-.35 0-.8.12-1.26.12-.46.11-.92.23-1.6.23h-10.21c-1.04 0-1.27.23-1.27.91v2.07c0 .57.58.69 2.53.8 2.63.34 4.24 1.15 4.35 4.36v13.3c0 12.61-.22 16.4 4.48 22.47 3.78 4.93 7.56 5.28 10.78 5.28 5.73 0 12.38-3.56 15.59-8.03h.23l.92 6.65c.11 1.15.57 1.38 1.03 1.38.92 0 1.6-.23 2.3-.46l12.03-4.01c.46-.12.69-.35.58-1.04l-.35-1.49c-.11-.46-.46-.68-1.37-.46-1.38.35-3.1.35-3.79.35-1.37 0-2.64-.46-2.98-4.01-.23-2.41-.23-8.03-.23-13.54z" />
    <path class="yyxy__glyph" d="M1341.2 1416.1c0-2.87-2.87-8.6-6.3-10.9-2.76-1.83-6.31-2.52-9.75-2.52-5.74 0-12.39 4.25-15.71 8.37h-.23l-.8-6.99c-.12-.92-.35-1.38-.92-1.38-.46 0-1.15.35-2.07.8l-9.86 5.51c-.57.23-1.03.57-1.03 1.15v.57c0 .34.12.69.92 1.03l.92.46c2.86 1.38 4.7 3.33 4.7 6.77v26.83c0 1.95-.8 2.3-2.3 2.3h-3.32c-.92 0-1.15.34-1.15 1.02v2.07c0 .69.23 1.03.8 1.03.7 0 4.36-.34 10.21-.34 6.08 0 9.17.34 9.98.34.57 0 .8-.34.8-1.03v-1.95c0-.8-.23-1.15-1.15-1.15h-2.87c-2.4 0-2.75-.69-2.75-3.78v-23.74c0-2.18.35-5.27 2.64-7.8 3.44-3.66 7.45-4.47 9.29-4.47 2.86 0 5.62 0 8.37 2.07 3.32 2.4 3.32 5.73 3.32 10.32v15.13c0 2.98-.11 6.65-.23 9.64-.11 2.06-1.03 2.63-2.29 2.63h-3.32c-1.15 0-1.5.23-1.5 1.03v1.84c0 .92.23 1.26.92 1.26.8 0 4.47-.34 10.32-.34 6.54 0 10.1.34 10.9.34.68 0 .91-.46.91-1.26v-1.84c0-.68-.23-1.03-1.26-1.03h-3.67c-1.49 0-2.52-.57-2.52-2.4z" />
    <path class="yyxy__glyph" d="M1376.5 1483.1c9.75 0 16.63-3.21 19.6-5.39 5.74-4.24 7.7-8.71 7.7-14.1-.12-2.76-.7-7.34-5.63-11.01-4.58-3.56-10.32-4.59-19.72-4.13-7.68.46-13.42.8-13.42-3.9 0-3.2 3.79-5.5 6.08-6.42 1.72.46 3.33.57 5.85.57 3.78 0 10.32-2.4 13.3-5.73 2.98-3.55 4.24-7.91 4.24-12.38 0-3.9-.8-6.42-1.72-8.72 1.5-.69 2.87-.69 3.67-.69.92 0 1.72.58 2.4 1.04a5.7 5.7 0 004.02 1.72 4.36 4.36 0 004.47-4.25c.23-2.29-1.6-4.81-5.38-4.81s-7.69 2.3-10.78 4.47a18.4 18.4 0 00-14.45-6.65c-12.96 0-19.61 9.17-19.61 16.63 0 10.2 6.2 15.48 10.66 17.42v.23c-4 1.5-10.32 5.4-10.32 10.9 0 3.44 2.87 7 7.69 8.02v.46c-5.5 2.41-12.04 7.34-12.04 13.76 0 3.79 1.72 6.77 5.85 9.29 5.5 3.1 12.04 3.67 17.54 3.67zm-.69-47.59c-2.75 0-4.81-.91-6.88-2.86-2.4-2.53-3.67-6.08-3.67-9.98 0-4.36.46-9.63 4.13-13.53 2.75-2.75 5.5-3.21 8.14-3.21 1.72 0 4.02 1.03 5.5 2.52 2.07 2.3 3.1 5.28 3.1 10.32 0 7.23-2.52 16.74-10.32 16.74zm4.7 43.92c-8.14 0-12.27-.57-16.05-3.21-2.3-1.6-4.47-5.05-4.47-7.91 0-6.2 5.62-10.1 9.17-11.01l11.01-.8c11.47-.8 16.63 4.35 16.63 11.12.57 8.83-12.04 11.81-16.29 11.81z" />
    <path class="yyxy__glyph yyxy__glyph--gt" d="M1419.8 1401.5v7.8l25.34 15.25v.57l-25.34 14.68v7.57l35.66-20.99v-3.67z" />
  </g>

  <g class="yyxy__logo" fill="none">
    <path class="yyxy__glyph" d="M735.63 1531.6c10.46 0 14.01-7.7 16.77-12.83 3.56-6.5 11.25-24.86 20.92-46.77 13.62-30.98 26.64-60.97 30.98-66.3a8.85 8.85 0 016.9-3.55h3.17c.98 0 .98-.6.98-1.78v-3.75c0-.79 0-1.58-1.18-1.58-2.17 0-6.71.6-12.04.6-9.47 0-13.62-.6-16.18-.6-.99 0-1.18.6-1.18 1.58v3.95c0 .99.2 1.58 1.38 1.58h3.15c2.96 0 4.54 2.56 3.36 7.5-1.19 4.93-18.35 45.78-20.33 48.94h-.79c-2.17-4.34-15.58-47.76-16.18-52.1-.4-2.96.4-4.34 2.57-4.34h3.75c.98 0 1.18-.6 1.18-1.58v-4.14c0-.8-.2-1.38-1.77-1.38-2.17 0-8.3.59-18.36.59-11.64 0-16.37-.6-18.15-.6-1.38 0-1.58.6-1.58 1.39v3.94c0 1.19.2 1.78 1.58 1.78h5.13c5.13 0 6.9 3.35 9.27 8.29 1.58 4.14 22.5 65.7 23.49 70.64-2.77 7.7-12.83 30.2-15.79 33.75-1.18 1.18-2.76 1.38-4.14 1.18-1.78-.4-5.33-2.17-9.08-2.17-4.74 0-9.08 3.55-9.08 7.7 0 5.92 3.75 10.06 11.25 10.06z" />
    <path class="yyxy__glyph" d="M822.37 1531.6c10.46 0 14.01-7.7 16.77-12.83 3.56-6.5 11.25-24.86 20.92-46.77 13.62-30.98 26.64-60.97 30.98-66.3a8.85 8.85 0 016.9-3.55h3.17c.98 0 .98-.6.98-1.78v-3.75c0-.79 0-1.58-1.18-1.58-2.17 0-6.71.6-12.04.6-9.47 0-13.62-.6-16.18-.6-.99 0-1.18.6-1.18 1.58v3.95c0 .99.2 1.58 1.38 1.58h3.15c2.96 0 4.54 2.56 3.36 7.5-1.19 4.93-18.35 45.78-20.33 48.94h-.79c-2.17-4.34-15.58-47.76-16.18-52.1-.4-2.96.4-4.34 2.57-4.34h3.75c.98 0 1.18-.6 1.18-1.58v-4.14c0-.8-.2-1.38-1.77-1.38-2.17 0-8.3.59-18.36.59-11.64 0-16.37-.6-18.15-.6-1.38 0-1.58.6-1.58 1.39v3.94c0 1.19.2 1.78 1.58 1.78h5.13c5.13 0 6.9 3.35 9.27 8.29 1.58 4.14 22.5 65.7 23.49 70.64-2.77 7.7-12.83 30.2-15.79 33.75-1.18 1.18-2.76 1.38-4.14 1.18-1.78-.4-5.33-2.17-9.08-2.17-4.74 0-9.08 3.55-9.08 7.7 0 5.92 3.75 10.06 11.25 10.06z" />
    <path class="yyxy__glyph" d="M928.05 1472.9c0-.79-.2-1.58-.99-1.58h-4.14c-2.37 0-3.16-2.17-2.17-4.34 1.38-3.16 14.4-20.72 17.17-24.67l14.2 22.7c2.18 3.35 1 6.31-1.18 6.31h-2.96c-1.38 0-1.58.6-1.58 1.97v3.36c0 .99.2 1.77 1.58 1.77 2.17 0 8.1-.59 19.34-.59 9.67 0 13.42.6 15.2.6 1.18 0 1.38-.8 1.38-1.58v-3.95c0-1.18-.2-1.58-1-1.58h-3.15c-3.55 0-6.31-1.38-8.68-4.14-8.68-10.46-16.58-22.5-24.47-34.14 4.14-5.13 20.92-25.85 24.27-28.62 1.98-1.57 3.95-2.36 7.7-2.36h3.16c1.38 0 1.57-.4 1.57-1.58v-3.55c0-1.19-.2-1.98-1.77-1.98-1.38 0-3.36.6-11.25.6-11.25 0-14.6-.6-16.97-.6-.79 0-.99.4-.99 1.58v4.15c0 .78.2 1.38 1.19 1.38h2.36c3.36 0 3.95 3.94 2.18 6.31l-15 19.73-12.24-19.33c-2.36-3.56-2.36-6.71.8-6.71h1.77c.79 0 1.18-.4 1.18-1.58v-3.75c0-1.19-.2-1.78-1.18-1.78-1.78 0-9.08.6-18.35.6-9.28 0-14.6-.6-16.18-.6-1.39 0-1.58.4-1.58 1.78v3.94c0 .6.2 1.39 1.38 1.39h5.52c2.77 0 5.53.79 7.1 2.76 4.55 4.93 15.8 20.92 23.3 32.56-3.36 3.75-21.71 28.22-25.46 31.57-1.58 1.58-3.75 2.37-8.1 2.37h-5.12c-1.39 0-1.58.79-1.58 1.78v3.55c0 .99.2 1.77 1.77 1.77 1.98 0 5.33-.59 15.2-.59 8.48 0 13.61.6 15.39.6 1.18 0 1.38-.8 1.38-1.58z" />
    <path class="yyxy__glyph" d="M996.24 1531.6c10.46 0 14.01-7.7 16.77-12.83 3.56-6.5 11.25-24.86 20.92-46.77 13.62-30.98 26.64-60.97 30.98-66.3a8.85 8.85 0 016.9-3.55h3.17c.98 0 .98-.6.98-1.78v-3.75c0-.79 0-1.58-1.18-1.58-2.17 0-6.71.6-12.04.6-9.47 0-13.62-.6-16.18-.6-.99 0-1.18.6-1.18 1.58v3.95c0 .99.2 1.58 1.38 1.58h3.15c2.96 0 4.54 2.56 3.36 7.5-1.18 4.93-18.35 45.78-20.33 48.94h-.79c-2.17-4.34-15.58-47.76-16.18-52.1-.4-2.96.4-4.34 2.57-4.34h3.75c.99 0 1.18-.6 1.18-1.58v-4.14c0-.8-.2-1.38-1.77-1.38-2.17 0-8.3.59-18.36.59-11.64 0-16.37-.6-18.15-.6-1.38 0-1.58.6-1.58 1.39v3.94c0 1.19.2 1.78 1.58 1.78h5.13c5.13 0 6.9 3.35 9.27 8.29 1.58 4.14 22.5 65.7 23.49 70.64-2.76 7.7-12.83 30.2-15.79 33.75-1.18 1.18-2.76 1.38-4.14 1.18-1.78-.4-5.33-2.17-9.08-2.17-4.74 0-9.08 3.55-9.08 7.7 0 5.92 3.75 10.06 11.25 10.06z" />
  </g>
</svg>
